<svg version="1.1" id="Layer_1" xmlns="http://www.w3.org/2000/svg" xmlns:xlink="http://www.w3.org/1999/xlink" x="0px" y="0px"
	 width="100%" viewBox="0 0 512 512" enable-background="new 0 0 512 512" xml:space="preserve">
<path fill="#FFFFFF" opacity="1.000000" stroke="none" 
	d="
M513.000000,188.000000 
	C513.000000,296.640259 513.000000,404.780518 513.000000,512.960388 
	C342.401398,512.960388 171.802780,512.960388 1.102087,512.960388 
	C1.102087,342.443115 1.102087,171.886124 1.102087,1.164572 
	C171.666534,1.164572 342.333252,1.164572 513.000000,1.164572 
	C513.000000,63.197178 513.000000,125.348587 513.000000,188.000000 
M256.077759,21.019156 
	C250.384781,21.068180 244.691818,21.117207 238.072983,21.011757 
	C175.835663,21.011757 113.598343,21.011757 51.000000,21.011757 
	C51.000000,22.884893 51.000000,24.343533 51.000000,25.802172 
	C51.000000,159.373062 50.999466,292.943970 51.006878,426.514862 
	C51.006962,428.009521 51.110603,429.504181 51.018246,431.924225 
	C51.069904,449.609100 51.121563,467.293976 51.012714,485.880585 
	C51.012714,488.120911 51.012714,490.361267 51.012714,492.833984 
	C54.227020,492.833984 57.112160,492.833984 60.924698,492.980835 
	C120.467201,492.987244 180.009705,492.998322 239.552200,492.992645 
	C245.369431,492.992096 251.186646,492.888519 257.930267,492.980255 
	C316.145020,492.986572 374.359772,492.998596 432.574524,492.991791 
	C439.722809,492.990967 446.871063,492.889282 454.923950,492.988190 
	C457.601837,492.988190 460.279724,492.988190 462.840759,492.988190 
	C462.840759,489.875824 462.840759,487.445648 462.986328,484.086243 
	C462.935577,466.388672 462.884827,448.691132 462.988251,430.068329 
	C462.988251,293.752838 462.988251,157.437378 462.988251,21.000000 
	C408.211639,21.000000 354.093750,20.992458 299.975830,21.007450 
	C290.986725,21.009939 281.997589,21.110701 272.085907,21.019512 
	C267.058563,21.068748 262.031189,21.117987 256.077759,21.019156 
z"/>
<path fill="#000000" opacity="1.000000" stroke="none" 
	d="
M273.008484,21.166050 
	C281.997589,21.110701 290.986725,21.009939 299.975830,21.007450 
	C354.093750,20.992458 408.211639,21.000000 462.988251,21.000000 
	C462.988251,157.437378 462.988251,293.752838 462.619446,430.356689 
	C459.945831,423.663818 454.247559,422.119934 447.913757,422.019623 
	C437.666168,421.857391 427.414398,421.959961 417.100342,421.565552 
	C411.026154,403.578857 405.020905,385.975677 399.004395,368.376373 
	C393.361389,351.869843 387.706451,335.367401 381.895508,318.531433 
	C371.114594,285.814362 360.494904,253.429001 349.851166,220.659836 
	C338.895721,187.750107 327.982941,155.217911 316.970154,122.719597 
	C316.491974,121.308472 315.094055,120.209007 314.073730,118.572174 
	C305.192566,91.091911 296.292725,64.026184 287.576477,36.901463 
	C285.125000,29.272690 280.878052,23.623333 273.008484,21.166050 
z"/>
<path fill="#000000" opacity="1.000000" stroke="none" 
	d="
M51.165905,430.998840 
	C51.110603,429.504181 51.006962,428.009521 51.006878,426.514862 
	C50.999466,292.943970 51.000000,159.373062 51.000000,25.802172 
	C51.000000,24.343533 51.000000,22.884893 51.000000,21.011757 
	C113.598343,21.011757 175.835663,21.011757 238.348145,21.391506 
	C230.875458,23.296822 227.205780,28.842236 224.981766,35.732582 
	C220.636795,49.194016 216.340424,62.671177 212.042969,76.147888 
	C207.406235,90.688530 202.791260,105.236107 198.043655,120.167435 
	C197.693512,120.791008 197.349548,120.988945 197.256104,121.270134 
	C186.202744,154.528625 175.167984,187.793274 164.062958,221.436371 
	C157.984161,239.811142 151.980621,257.809174 145.963120,275.802551 
	C141.038513,290.528015 136.097290,305.247894 131.085022,320.361237 
	C129.718674,324.668793 128.426208,328.583862 127.143524,332.502167 
	C117.379601,362.328308 107.617592,392.155060 97.395462,421.988708 
	C87.120483,421.996735 77.303543,422.102081 67.490044,421.964020 
	C60.238995,421.862061 54.291752,423.799408 51.165905,430.998840 
z"/>
<path fill="#ED2F00" opacity="1.000000" stroke="none" 
	d="
M51.092075,431.461548 
	C54.291752,423.799408 60.238995,421.862061 67.490044,421.964020 
	C77.303543,422.102081 87.120483,421.996735 97.649963,422.347595 
	C100.182220,422.797699 102.000420,422.980652 103.818718,422.981628 
	C135.595886,422.999084 167.373062,423.014069 199.150223,422.986847 
	C218.445587,422.970337 237.740891,422.881104 256.983917,422.908081 
	C256.931610,422.991638 256.960114,423.186707 256.973511,423.643494 
	C256.992554,447.011078 256.998199,469.921936 257.003876,492.832764 
	C251.186646,492.888519 245.369431,492.992096 239.552200,492.992645 
	C180.009705,492.998322 120.467201,492.987244 60.282539,492.610229 
	C56.817997,489.819366 53.995605,487.399109 51.173218,484.978851 
	C51.121563,467.293976 51.069904,449.609100 51.092075,431.461548 
z"/>
<path fill="#DB2C00" opacity="1.000000" stroke="none" 
	d="
M257.467072,492.906494 
	C256.998199,469.921936 256.992554,447.011078 257.438354,423.564636 
	C309.125946,423.018890 360.362030,423.019745 411.598083,422.954529 
	C413.453949,422.952148 415.308990,422.300018 417.164398,421.950684 
	C427.414398,421.959961 437.666168,421.857391 447.913757,422.019623 
	C454.247559,422.119934 459.945831,423.663818 462.542358,430.819336 
	C462.884827,448.691132 462.935577,466.388672 462.623474,484.714966 
	C459.513550,487.840576 456.766449,490.337463 454.019348,492.834351 
	C446.871063,492.889282 439.722809,492.990967 432.574524,492.991791 
	C374.359772,492.998596 316.145020,492.986572 257.467072,492.906494 
z"/>
<path fill="#ED2F00" opacity="1.000000" stroke="none" 
	d="
M198.166809,119.780670 
	C202.791260,105.236107 207.406235,90.688530 212.042969,76.147888 
	C216.340424,62.671177 220.636795,49.194016 224.981766,35.732582 
	C227.205780,28.842236 230.875458,23.296822 238.811081,21.468742 
	C244.691818,21.117207 250.384781,21.068180 256.539612,21.551012 
	C256.987122,54.585941 256.972839,87.089012 256.937866,119.714272 
	C256.917206,119.836456 257.015869,120.063759 256.554016,119.972519 
	C236.783691,119.847733 217.475250,119.814201 198.166809,119.780670 
z"/>
<path fill="#DB2C00" opacity="1.000000" stroke="none" 
	d="
M256.958557,119.592087 
	C256.972839,87.089012 256.987122,54.585941 257.002625,21.625046 
	C262.031189,21.117987 267.058563,21.068748 272.547180,21.092781 
	C280.878052,23.623333 285.125000,29.272690 287.576477,36.901463 
	C296.292725,64.026184 305.192566,91.091911 313.791748,118.900940 
	C294.693268,119.611954 275.825928,119.602020 256.958557,119.592087 
z"/>
<path fill="#000000" opacity="1.000000" stroke="none" 
	d="
M51.092964,485.429718 
	C53.995605,487.399109 56.817997,489.819366 59.818844,492.536804 
	C57.112160,492.833984 54.227020,492.833984 51.012714,492.833984 
	C51.012714,490.361267 51.012714,488.120911 51.092964,485.429718 
z"/>
<path fill="#000000" opacity="1.000000" stroke="none" 
	d="
M454.471680,492.911255 
	C456.766449,490.337463 459.513550,487.840576 462.550720,485.179565 
	C462.840759,487.445648 462.840759,489.875824 462.840759,492.988190 
	C460.279724,492.988190 457.601837,492.988190 454.471680,492.911255 
z"/>
<path fill="#CBCBCB" opacity="1.000000" stroke="none" 
	d="
M417.100342,421.565521 
	C415.308990,422.300018 413.453949,422.952148 411.598083,422.954529 
	C360.362030,423.019745 309.125946,423.018890 257.424988,423.107849 
	C256.960114,423.186707 256.931610,422.991638 256.972076,422.451050 
	C256.962769,387.859558 256.912964,353.808685 257.318085,319.615021 
	C297.057159,319.438324 336.341309,319.412262 375.625427,319.349030 
	C377.769470,319.345581 379.912994,319.032227 382.056763,318.863159 
	C387.706451,335.367401 393.361389,351.869843 399.004395,368.376373 
	C405.020905,385.975677 411.026154,403.578857 417.100342,421.565521 
z"/>
<path fill="#DB2C00" opacity="1.000000" stroke="none" 
	d="
M381.895508,318.531433 
	C379.912994,319.032227 377.769470,319.345581 375.625427,319.349030 
	C336.341309,319.412262 297.057159,319.438324 257.317078,319.462769 
	C256.861176,319.453278 256.910858,319.152893 256.939392,318.673218 
	C256.959778,285.900391 256.951630,253.607254 257.406982,221.220093 
	C288.538727,221.098602 319.207001,221.071121 349.875244,221.043655 
	C360.494904,253.429001 371.114594,285.814362 381.895508,318.531433 
z"/>
<path fill="#CBCBCB" opacity="1.000000" stroke="none" 
	d="
M349.851166,220.659836 
	C319.207001,221.071121 288.538727,221.098602 257.392273,221.106873 
	C256.914062,221.087692 257.027130,220.889359 257.018616,220.428009 
	C257.011993,186.665695 257.013916,153.364731 257.015869,120.063759 
	C257.015869,120.063759 256.917206,119.836456 256.937866,119.714272 
	C275.825928,119.602020 294.693268,119.611954 313.842590,119.293121 
	C315.094055,120.209007 316.491974,121.308472 316.970154,122.719597 
	C327.982941,155.217911 338.895721,187.750107 349.851166,220.659836 
z"/>
<path fill="#E5E5E5" opacity="1.000000" stroke="none" 
	d="
M256.862183,319.605530 
	C256.912964,353.808685 256.962769,387.859558 257.024384,422.367493 
	C237.740891,422.881104 218.445587,422.970337 199.150223,422.986847 
	C167.373062,423.014069 135.595886,422.999084 103.818718,422.981628 
	C102.000420,422.980652 100.182220,422.797699 98.109482,422.340515 
	C107.617592,392.155060 117.379601,362.328308 127.143524,332.502167 
	C128.426208,328.583862 129.718674,324.668793 131.484711,320.274628 
	C134.272324,319.664307 136.581757,319.417877 138.891388,319.415985 
	C170.269791,319.390442 201.648239,319.415009 233.026627,319.387573 
	C240.988113,319.380615 248.949448,319.234863 256.910858,319.152893 
	C256.910858,319.152893 256.861176,319.453278 256.862183,319.605530 
z"/>
<path fill="#ED2F00" opacity="1.000000" stroke="none" 
	d="
M256.939392,318.673218 
	C248.949448,319.234863 240.988113,319.380615 233.026627,319.387573 
	C201.648239,319.415009 170.269791,319.390442 138.891388,319.415985 
	C136.581757,319.417877 134.272324,319.664307 131.563110,319.883636 
	C136.097290,305.247894 141.038513,290.528015 145.963120,275.802551 
	C151.980621,257.809174 157.984161,239.811142 164.521881,221.449799 
	C195.709076,221.019440 226.368103,220.954391 257.027130,220.889359 
	C257.027130,220.889359 256.914062,221.087692 256.928772,221.200897 
	C256.951630,253.607254 256.959778,285.900391 256.939392,318.673218 
z"/>
<path fill="#E5E5E5" opacity="1.000000" stroke="none" 
	d="
M257.018616,220.428009 
	C226.368103,220.954391 195.709076,221.019440 164.591125,221.071045 
	C175.167984,187.793274 186.202744,154.528625 197.256104,121.270134 
	C197.349548,120.988945 197.693512,120.791008 198.043655,120.167435 
	C217.475250,119.814201 236.783691,119.847733 256.554016,119.972519 
	C257.013916,153.364731 257.011993,186.665695 257.018616,220.428009 
z"/>
</svg>